<svg width="325" height="49" viewBox="0 0 325 49" fill="none" xmlns="http://www.w3.org/2000/svg">
<rect y="0.5" width="324.5" height="48" rx="4" fill="white"/>
<path fill-rule="evenodd" clip-rule="evenodd" d="M16.2929 24.3155C16.028 24.419 15.9195 24.7356 16.0651 24.9799L17.8132 27.9108C18.0636 28.3306 18.5808 28.5079 19.0361 28.3299L35.9381 21.723C36.7279 21.4143 37.1179 20.5237 36.8092 19.734C36.4883 18.913 35.5436 18.5302 34.7417 18.8961L29.7432 21.1773L22.773 14.7713C22.4838 14.5055 22.0685 14.4276 21.7027 14.5706C21.0896 14.8102 20.8564 15.556 21.2236 16.1023L25.6983 22.7584L18.8555 25.8571L16.7241 24.3669C16.598 24.2787 16.4362 24.2594 16.2929 24.3155ZM37.6776 31.4521H17.1476V33.0313H37.6776V31.4521Z" fill="#6E7491"/>
<path d="M53.566 30.5V17.81H61.414V19.052H55.042V23.48H61.054V24.722H55.042V30.5H53.566ZM63.0535 30.5V21.752H64.4755V23.318C64.9435 22.262 65.9035 21.68 67.3555 21.572L67.8775 21.518L67.9855 22.778L67.0675 22.886C66.2395 22.958 65.6095 23.222 65.1775 23.678C64.7455 24.122 64.5295 24.734 64.5295 25.514V30.5H63.0535ZM73.0353 30.662C72.1833 30.662 71.4453 30.476 70.8213 30.104C70.1973 29.732 69.7113 29.21 69.3633 28.538C69.0273 27.854 68.8593 27.05 68.8593 26.126C68.8593 25.202 69.0273 24.404 69.3633 23.732C69.7113 23.048 70.1973 22.52 70.8213 22.148C71.4453 21.776 72.1833 21.59 73.0353 21.59C73.8753 21.59 74.6073 21.776 75.2313 22.148C75.8673 22.52 76.3533 23.048 76.6893 23.732C77.0373 24.404 77.2113 25.202 77.2113 26.126C77.2113 27.05 77.0373 27.854 76.6893 28.538C76.3533 29.21 75.8673 29.732 75.2313 30.104C74.6073 30.476 73.8753 30.662 73.0353 30.662ZM73.0353 29.492C73.8513 29.492 74.5053 29.204 74.9973 28.628C75.4893 28.04 75.7353 27.206 75.7353 26.126C75.7353 25.034 75.4893 24.2 74.9973 23.624C74.5053 23.048 73.8513 22.76 73.0353 22.76C72.2073 22.76 71.5473 23.048 71.0553 23.624C70.5753 24.2 70.3353 25.034 70.3353 26.126C70.3353 27.206 70.5753 28.04 71.0553 28.628C71.5473 29.204 72.2073 29.492 73.0353 29.492ZM79.4372 30.5V21.752H80.8592V23.228C81.1232 22.7 81.4892 22.298 81.9572 22.022C82.4252 21.734 82.9712 21.59 83.5952 21.59C84.9632 21.59 85.8392 22.184 86.2232 23.372C86.4872 22.82 86.8772 22.388 87.3932 22.076C87.9092 21.752 88.5032 21.59 89.1752 21.59C91.1192 21.59 92.0912 22.742 92.0912 25.046V30.5H90.6332V25.118C90.6332 24.314 90.4892 23.726 90.2012 23.354C89.9252 22.97 89.4632 22.778 88.8152 22.778C88.1072 22.778 87.5432 23.03 87.1232 23.534C86.7032 24.038 86.4932 24.71 86.4932 25.55V30.5H85.0352V25.118C85.0352 24.314 84.8912 23.726 84.6032 23.354C84.3272 22.97 83.8652 22.778 83.2172 22.778C82.4972 22.778 81.9272 23.03 81.5072 23.534C81.0992 24.038 80.8952 24.71 80.8952 25.55V30.5H79.4372ZM101.762 30.5L98.5043 21.752H100.034L102.5 28.79L105.056 21.752H106.298L108.818 28.808L111.32 21.752H112.778L109.502 30.5H108.116L105.65 23.714L103.166 30.5H101.762ZM114.575 30.5V17.81H116.033V23.192C116.321 22.664 116.723 22.268 117.239 22.004C117.767 21.728 118.355 21.59 119.003 21.59C121.079 21.59 122.117 22.742 122.117 25.046V30.5H120.659V25.136C120.659 24.32 120.497 23.726 120.173 23.354C119.861 22.97 119.357 22.778 118.661 22.778C117.857 22.778 117.215 23.03 116.735 23.534C116.267 24.026 116.033 24.686 116.033 25.514V30.5H114.575ZM128.748 30.662C127.368 30.662 126.276 30.26 125.472 29.456C124.668 28.64 124.266 27.536 124.266 26.144C124.266 25.244 124.446 24.452 124.806 23.768C125.166 23.072 125.658 22.538 126.282 22.166C126.918 21.782 127.65 21.59 128.478 21.59C129.666 21.59 130.596 21.974 131.268 22.742C131.94 23.498 132.276 24.542 132.276 25.874V26.432H125.688C125.736 27.428 126.024 28.19 126.552 28.718C127.08 29.234 127.812 29.492 128.748 29.492C129.276 29.492 129.78 29.414 130.26 29.258C130.74 29.09 131.196 28.82 131.628 28.448L132.132 29.474C131.736 29.846 131.232 30.14 130.62 30.356C130.008 30.56 129.384 30.662 128.748 30.662ZM128.514 22.67C127.686 22.67 127.032 22.928 126.552 23.444C126.072 23.96 125.79 24.638 125.706 25.478H131.016C130.98 24.59 130.746 23.9 130.314 23.408C129.894 22.916 129.294 22.67 128.514 22.67ZM134.386 30.5V21.752H135.808V23.318C136.276 22.262 137.236 21.68 138.688 21.572L139.21 21.518L139.318 22.778L138.4 22.886C137.572 22.958 136.942 23.222 136.51 23.678C136.078 24.122 135.862 24.734 135.862 25.514V30.5H134.386ZM144.673 30.662C143.293 30.662 142.201 30.26 141.397 29.456C140.593 28.64 140.191 27.536 140.191 26.144C140.191 25.244 140.371 24.452 140.731 23.768C141.091 23.072 141.583 22.538 142.207 22.166C142.843 21.782 143.575 21.59 144.403 21.59C145.591 21.59 146.521 21.974 147.193 22.742C147.865 23.498 148.201 24.542 148.201 25.874V26.432H141.613C141.661 27.428 141.949 28.19 142.477 28.718C143.005 29.234 143.737 29.492 144.673 29.492C145.201 29.492 145.705 29.414 146.185 29.258C146.665 29.09 147.121 28.82 147.553 28.448L148.057 29.474C147.661 29.846 147.157 30.14 146.545 30.356C145.933 30.56 145.309 30.662 144.673 30.662ZM144.439 22.67C143.611 22.67 142.957 22.928 142.477 23.444C141.997 23.96 141.715 24.638 141.631 25.478H146.941C146.905 24.59 146.671 23.9 146.239 23.408C145.819 22.916 145.219 22.67 144.439 22.67ZM152.044 27.188V26.666C152.044 26.054 152.158 25.484 152.386 24.956C152.614 24.416 153.016 23.81 153.592 23.138C154.048 22.61 154.366 22.16 154.546 21.788C154.726 21.416 154.816 21.02 154.816 20.6C154.816 20.096 154.636 19.7 154.276 19.412C153.916 19.112 153.418 18.962 152.782 18.962C152.122 18.962 151.51 19.082 150.946 19.322C150.382 19.562 149.848 19.922 149.344 20.402L148.804 19.25C149.272 18.77 149.866 18.386 150.586 18.098C151.306 17.798 152.062 17.648 152.854 17.648C153.886 17.648 154.72 17.912 155.356 18.44C155.992 18.956 156.31 19.64 156.31 20.492C156.31 21.056 156.184 21.584 155.932 22.076C155.692 22.568 155.266 23.138 154.654 23.786C154.09 24.386 153.688 24.914 153.448 25.37C153.22 25.814 153.076 26.27 153.016 26.738L152.98 27.188H152.044ZM151.594 30.5V28.664H153.43V30.5H151.594Z" fill="#7C8DB0"/>
</svg>
